solid R-110
   facet normal 0.000000e+000 1.000000e+000 0.000000e+000
      outer loop
         vertex 8.849001e+000 1.816100e+001 8.839001e+000
         vertex 8.839001e+000 1.816100e+001 8.839001e+000
         vertex 8.849001e+000 1.816100e+001 9.000000e+000
      endloop
   endfacet
   facet normal 0.000000e+000 1.000000e+000 0.000000e+000
      outer loop
         vertex 8.849001e+000 1.816100e+001 9.000000e+000
         vertex 8.839001e+000 1.816100e+001 8.839001e+000
         vertex 8.839001e+000 1.816100e+001 9.000000e+000
      endloop
   endfacet
   facet normal 0.000000e+000 1.000000e+000 0.000000e+000
      outer loop
         vertex 3.299000e+001 1.816100e+001 9.000000e+000
         vertex 3.300000e+001 1.816100e+001 9.000000e+000
         vertex 3.299000e+001 1.816100e+001 8.839001e+000
      endloop
   endfacet
   facet normal 0.000000e+000 1.000000e+000 0.000000e+000
      outer loop
         vertex 3.299000e+001 1.816100e+001 8.839001e+000
         vertex 3.300000e+001 1.816100e+001 9.000000e+000
         vertex 3.300000e+001 1.816100e+001 8.839001e+000
      endloop
   endfacet
   facet normal 0.000000e+000 0.000000e+000 -1.000000e+000
      outer loop
         vertex 8.849001e+000 1.824150e+001 9.000000e+000
         vertex 8.849001e+000 1.816100e+001 9.000000e+000
         vertex 8.839001e+000 1.816100e+001 9.000000e+000
      endloop
   endfacet
   facet normal 0.000000e+000 0.000000e+000 -1.000000e+000
      outer loop
         vertex 8.839001e+000 1.808050e+001 9.000000e+000
         vertex 0.000000e+000 1.808050e+001 9.000000e+000
         vertex 8.839001e+000 1.816100e+001 9.000000e+000
      endloop
   endfacet
   facet normal 0.000000e+000 0.000000e+000 -1.000000e+000
      outer loop
         vertex 8.839001e+000 1.816100e+001 9.000000e+000
         vertex 0.000000e+000 1.808050e+001 9.000000e+000
         vertex 0.000000e+000 1.824150e+001 9.000000e+000
      endloop
   endfacet
   facet normal 0.000000e+000 0.000000e+000 -1.000000e+000
      outer loop
         vertex 8.839001e+000 1.816100e+001 9.000000e+000
         vertex 0.000000e+000 1.824150e+001 9.000000e+000
         vertex 8.849001e+000 1.824150e+001 9.000000e+000
      endloop
   endfacet
   facet normal 0.000000e+000 0.000000e+000 -1.000000e+000
      outer loop
         vertex 3.299000e+001 1.816100e+001 9.000000e+000
         vertex 3.299000e+001 1.824150e+001 9.000000e+000
         vertex 3.300000e+001 1.816100e+001 9.000000e+000
      endloop
   endfacet
   facet normal 0.000000e+000 0.000000e+000 -1.000000e+000
      outer loop
         vertex 3.300000e+001 1.816100e+001 9.000000e+000
         vertex 3.299000e+001 1.824150e+001 9.000000e+000
         vertex 4.183900e+001 1.824150e+001 9.000000e+000
      endloop
   endfacet
   facet normal 0.000000e+000 0.000000e+000 -1.000000e+000
      outer loop
         vertex 3.300000e+001 1.816100e+001 9.000000e+000
         vertex 4.183900e+001 1.824150e+001 9.000000e+000
         vertex 3.300000e+001 1.808050e+001 9.000000e+000
      endloop
   endfacet
   facet normal 0.000000e+000 0.000000e+000 -1.000000e+000
      outer loop
         vertex 3.300000e+001 1.808050e+001 9.000000e+000
         vertex 4.183900e+001 1.824150e+001 9.000000e+000
         vertex 4.183900e+001 1.808050e+001 9.000000e+000
      endloop
   endfacet
   facet normal 0.000000e+000 1.000000e+000 0.000000e+000
      outer loop
         vertex 8.839001e+000 1.816100e+001 2.683900e+001
         vertex 8.839001e+000 1.816100e+001 2.700000e+001
         vertex 8.849001e+000 1.816100e+001 2.683900e+001
      endloop
   endfacet
   facet normal 0.000000e+000 1.000000e+000 0.000000e+000
      outer loop
         vertex 8.849001e+000 1.816100e+001 2.683900e+001
         vertex 8.839001e+000 1.816100e+001 2.700000e+001
         vertex 8.849001e+000 1.816100e+001 2.700000e+001
      endloop
   endfacet
   facet normal 0.000000e+000 1.000000e+000 0.000000e+000
      outer loop
         vertex 3.300000e+001 1.816100e+001 2.700000e+001
         vertex 3.300000e+001 1.816100e+001 2.683900e+001
         vertex 3.299000e+001 1.816100e+001 2.700000e+001
      endloop
   endfacet
   facet normal 0.000000e+000 1.000000e+000 0.000000e+000
      outer loop
         vertex 3.299000e+001 1.816100e+001 2.700000e+001
         vertex 3.300000e+001 1.816100e+001 2.683900e+001
         vertex 3.299000e+001 1.816100e+001 2.683900e+001
      endloop
   endfacet
   facet normal 1.000000e+000 0.000000e+000 0.000000e+000
      outer loop
         vertex 3.300000e+001 1.610000e-001 9.000000e+000
         vertex 3.300000e+001 1.610000e-001 8.839001e+000
         vertex 3.300000e+001 1.816100e+001 8.839001e+000
      endloop
   endfacet
   facet normal 1.000000e+000 0.000000e+000 0.000000e+000
      outer loop
         vertex 3.300000e+001 1.816100e+001 8.839001e+000
         vertex 3.300000e+001 1.816100e+001 9.000000e+000
         vertex 3.300000e+001 1.808050e+001 9.000000e+000
      endloop
   endfacet
   facet normal 1.000000e+000 0.000000e+000 0.000000e+000
      outer loop
         vertex 3.300000e+001 1.610000e-001 2.683900e+001
         vertex 3.300000e+001 8.049971e-002 2.683900e+001
         vertex 3.300000e+001 8.049971e-002 9.000000e+000
      endloop
   endfacet
   facet normal 1.000000e+000 0.000000e+000 0.000000e+000
      outer loop
         vertex 3.300000e+001 1.816100e+001 2.683900e+001
         vertex 3.300000e+001 1.816100e+001 2.700000e+001
         vertex 3.300000e+001 1.808050e+001 2.683900e+001
      endloop
   endfacet
   facet normal 1.000000e+000 0.000000e+000 0.000000e+000
      outer loop
         vertex 3.300000e+001 1.808050e+001 2.683900e+001
         vertex 3.300000e+001 1.816100e+001 2.700000e+001
         vertex 3.300000e+001 1.610000e-001 2.700000e+001
      endloop
   endfacet
   facet normal 1.000000e+000 0.000000e+000 0.000000e+000
      outer loop
         vertex 3.300000e+001 8.049971e-002 9.000000e+000
         vertex 3.300000e+001 1.610000e-001 9.000000e+000
         vertex 3.300000e+001 1.610000e-001 2.683900e+001
      endloop
   endfacet
   facet normal 1.000000e+000 0.000000e+000 0.000000e+000
      outer loop
         vertex 3.300000e+001 1.610000e-001 2.683900e+001
         vertex 3.300000e+001 1.610000e-001 9.000000e+000
         vertex 3.300000e+001 1.816100e+001 8.839001e+000
      endloop
   endfacet
   facet normal 1.000000e+000 0.000000e+000 0.000000e+000
      outer loop
         vertex 3.300000e+001 1.610000e-001 2.683900e+001
         vertex 3.300000e+001 1.816100e+001 8.839001e+000
         vertex 3.300000e+001 1.610000e-001 2.700000e+001
      endloop
   endfacet
   facet normal 1.000000e+000 0.000000e+000 0.000000e+000
      outer loop
         vertex 3.300000e+001 1.610000e-001 2.700000e+001
         vertex 3.300000e+001 1.816100e+001 8.839001e+000
         vertex 3.300000e+001 1.808050e+001 9.000000e+000
      endloop
   endfacet
   facet normal 1.000000e+000 0.000000e+000 0.000000e+000
      outer loop
         vertex 3.300000e+001 1.610000e-001 2.700000e+001
         vertex 3.300000e+001 1.808050e+001 9.000000e+000
         vertex 3.300000e+001 1.808050e+001 2.683900e+001
      endloop
   endfacet
   facet normal 0.000000e+000 -1.000000e+000 0.000000e+000
      outer loop
         vertex 3.300000e+001 1.610000e-001 8.839001e+000
         vertex 3.300000e+001 1.610000e-001 9.000000e+000
         vertex 3.299000e+001 1.610000e-001 8.839001e+000
      endloop
   endfacet
   facet normal 0.000000e+000 -1.000000e+000 0.000000e+000
      outer loop
         vertex 3.299000e+001 1.610000e-001 8.839001e+000
         vertex 3.300000e+001 1.610000e-001 9.000000e+000
         vertex 3.299000e+001 1.610000e-001 9.000000e+000
      endloop
   endfacet
   facet normal 0.000000e+000 -1.000000e+000 0.000000e+000
      outer loop
         vertex 8.839001e+000 1.610000e-001 9.000000e+000
         vertex 8.839001e+000 1.610000e-001 8.839001e+000
         vertex 8.849001e+000 1.610000e-001 9.000000e+000
      endloop
   endfacet
   facet normal 0.000000e+000 -1.000000e+000 0.000000e+000
      outer loop
         vertex 8.849001e+000 1.610000e-001 9.000000e+000
         vertex 8.839001e+000 1.610000e-001 8.839001e+000
         vertex 8.849001e+000 1.610000e-001 8.839001e+000
      endloop
   endfacet
   facet normal 0.000000e+000 0.000000e+000 -1.000000e+000
      outer loop
         vertex 8.849001e+000 8.049971e-002 9.000000e+000
         vertex 8.839001e+000 8.049971e-002 9.000000e+000
         vertex 8.849001e+000 1.610000e-001 9.000000e+000
      endloop
   endfacet
   facet normal 0.000000e+000 0.000000e+000 -1.000000e+000
      outer loop
         vertex 8.849001e+000 1.610000e-001 9.000000e+000
         vertex 8.839001e+000 8.049971e-002 9.000000e+000
         vertex 8.839001e+000 1.610000e-001 9.000000e+000
      endloop
   endfacet
   facet normal 0.000000e+000 -1.000000e+000 -6.125563e-017
      outer loop
         vertex 1.800000e+001 8.049971e-002 1.791850e+001
         vertex 1.800000e+001 8.049971e-002 1.792050e+001
         vertex 8.849001e+000 8.049971e-002 1.791850e+001
      endloop
   endfacet
   facet normal 0.000000e+000 -1.000000e+000 -6.125563e-017
      outer loop
         vertex 8.849001e+000 8.049971e-002 1.791850e+001
         vertex 1.800000e+001 8.049971e-002 1.792050e+001
         vertex 8.849001e+000 8.049971e-002 1.792050e+001
      endloop
   endfacet
   facet normal 0.000000e+000 -1.000000e+000 -6.125563e-017
      outer loop
         vertex 8.849001e+000 8.049971e-002 1.792050e+001
         vertex 8.849001e+000 8.049971e-002 2.683900e+001
         vertex 8.839001e+000 8.049971e-002 2.683900e+001
      endloop
   endfacet
   facet normal 0.000000e+000 -1.000000e+000 -6.125563e-017
      outer loop
         vertex 8.849001e+000 8.049971e-002 1.792050e+001
         vertex 8.839001e+000 8.049971e-002 2.683900e+001
         vertex 8.849001e+000 8.049971e-002 1.791850e+001
      endloop
   endfacet
   facet normal 0.000000e+000 -1.000000e+000 -6.125563e-017
      outer loop
         vertex 8.849001e+000 8.049971e-002 1.791850e+001
         vertex 8.839001e+000 8.049971e-002 2.683900e+001
         vertex 8.839001e+000 8.049971e-002 9.000000e+000
      endloop
   endfacet
   facet normal 0.000000e+000 -1.000000e+000 -6.125563e-017
      outer loop
         vertex 8.849001e+000 8.049971e-002 1.791850e+001
         vertex 8.839001e+000 8.049971e-002 9.000000e+000
         vertex 8.849001e+000 8.049971e-002 9.000000e+000
      endloop
   endfacet
   facet normal 1.000000e+000 0.000000e+000 0.000000e+000
      outer loop
         vertex 1.800000e+001 1.610000e-001 1.791850e+001
         vertex 1.800000e+001 1.610000e-001 9.000000e+000
         vertex 1.800000e+001 2.414997e-001 9.000000e+000
      endloop
   endfacet
   facet normal 1.000000e+000 0.000000e+000 0.000000e+000
      outer loop
         vertex 1.800000e+001 2.414997e-001 2.683900e+001
         vertex 1.800000e+001 1.610000e-001 2.683900e+001
         vertex 1.800000e+001 1.610000e-001 1.792050e+001
      endloop
   endfacet
   facet normal 1.000000e+000 0.000000e+000 0.000000e+000
      outer loop
         vertex 1.800000e+001 8.049971e-002 1.792050e+001
         vertex 1.800000e+001 8.049971e-002 1.791850e+001
         vertex 1.800000e+001 1.610000e-001 1.792050e+001
      endloop
   endfacet
   facet normal 1.000000e+000 0.000000e+000 0.000000e+000
      outer loop
         vertex 1.800000e+001 1.610000e-001 1.792050e+001
         vertex 1.800000e+001 8.049971e-002 1.791850e+001
         vertex 1.800000e+001 1.610000e-001 1.791850e+001
      endloop
   endfacet
   facet normal 1.000000e+000 0.000000e+000 0.000000e+000
      outer loop
         vertex 1.800000e+001 1.610000e-001 1.792050e+001
         vertex 1.800000e+001 1.610000e-001 1.791850e+001
         vertex 1.800000e+001 2.414997e-001 2.683900e+001
      endloop
   endfacet
   facet normal 1.000000e+000 0.000000e+000 0.000000e+000
      outer loop
         vertex 1.800000e+001 2.414997e-001 2.683900e+001
         vertex 1.800000e+001 1.610000e-001 1.791850e+001
         vertex 1.800000e+001 2.414997e-001 9.000000e+000
      endloop
   endfacet
   facet normal 0.000000e+000 0.000000e+000 -1.000000e+000
      outer loop
         vertex 3.299000e+001 1.610000e-001 9.000000e+000
         vertex 3.300000e+001 1.610000e-001 9.000000e+000
         vertex 3.299000e+001 8.049971e-002 9.000000e+000
      endloop
   endfacet
   facet normal 0.000000e+000 0.000000e+000 -1.000000e+000
      outer loop
         vertex 3.299000e+001 8.049971e-002 9.000000e+000
         vertex 3.300000e+001 1.610000e-001 9.000000e+000
         vertex 3.300000e+001 8.049971e-002 9.000000e+000
      endloop
   endfacet
   facet normal 0.000000e+000 -1.000000e+000 -6.125563e-017
      outer loop
         vertex 3.299000e+001 8.049971e-002 9.000000e+000
         vertex 3.300000e+001 8.049971e-002 9.000000e+000
         vertex 3.299000e+001 8.049971e-002 1.791850e+001
      endloop
   endfacet
   facet normal 0.000000e+000 -1.000000e+000 -6.125563e-017
      outer loop
         vertex 3.299000e+001 8.049971e-002 1.791850e+001
         vertex 3.300000e+001 8.049971e-002 9.000000e+000
         vertex 3.300000e+001 8.049971e-002 2.683900e+001
      endloop
   endfacet
   facet normal 0.000000e+000 -1.000000e+000 -6.125563e-017
      outer loop
         vertex 2.383900e+001 8.049971e-002 1.792050e+001
         vertex 2.383900e+001 8.049971e-002 1.791850e+001
         vertex 3.299000e+001 8.049971e-002 1.791850e+001
      endloop
   endfacet
   facet normal 0.000000e+000 -1.000000e+000 -6.125563e-017
      outer loop
         vertex 2.383900e+001 8.049971e-002 1.792050e+001
         vertex 3.299000e+001 8.049971e-002 1.791850e+001
         vertex 3.299000e+001 8.049971e-002 1.792050e+001
      endloop
   endfacet
   facet normal 0.000000e+000 -1.000000e+000 -6.125563e-017
      outer loop
         vertex 3.299000e+001 8.049971e-002 1.792050e+001
         vertex 3.299000e+001 8.049971e-002 1.791850e+001
         vertex 3.300000e+001 8.049971e-002 2.683900e+001
      endloop
   endfacet
   facet normal 0.000000e+000 -1.000000e+000 -6.125563e-017
      outer loop
         vertex 3.299000e+001 8.049971e-002 1.792050e+001
         vertex 3.300000e+001 8.049971e-002 2.683900e+001
         vertex 3.299000e+001 8.049971e-002 2.683900e+001
      endloop
   endfacet
   facet normal -1.000000e+000 0.000000e+000 0.000000e+000
      outer loop
         vertex 2.383900e+001 2.414997e-001 2.683900e+001
         vertex 2.383900e+001 2.414997e-001 9.000000e+000
         vertex 2.383900e+001 1.610000e-001 1.791850e+001
      endloop
   endfacet
   facet normal -1.000000e+000 0.000000e+000 0.000000e+000
      outer loop
         vertex 2.383900e+001 1.610000e-001 1.791850e+001
         vertex 2.383900e+001 2.414997e-001 9.000000e+000
         vertex 2.383900e+001 1.610000e-001 9.000000e+000
      endloop
   endfacet
   facet normal -1.000000e+000 0.000000e+000 0.000000e+000
      outer loop
         vertex 2.383900e+001 1.610000e-001 2.683900e+001
         vertex 2.383900e+001 2.414997e-001 2.683900e+001
         vertex 2.383900e+001 1.610000e-001 1.792050e+001
      endloop
   endfacet
   facet normal -1.000000e+000 0.000000e+000 0.000000e+000
      outer loop
         vertex 2.383900e+001 1.610000e-001 1.792050e+001
         vertex 2.383900e+001 2.414997e-001 2.683900e+001
         vertex 2.383900e+001 1.610000e-001 1.791850e+001
      endloop
   endfacet
   facet normal -1.000000e+000 0.000000e+000 0.000000e+000
      outer loop
         vertex 2.383900e+001 1.610000e-001 1.792050e+001
         vertex 2.383900e+001 1.610000e-001 1.791850e+001
         vertex 2.383900e+001 8.049971e-002 1.792050e+001
      endloop
   endfacet
   facet normal -1.000000e+000 0.000000e+000 0.000000e+000
      outer loop
         vertex 2.383900e+001 8.049971e-002 1.792050e+001
         vertex 2.383900e+001 1.610000e-001 1.791850e+001
         vertex 2.383900e+001 8.049971e-002 1.791850e+001
      endloop
   endfacet
   facet normal 0.000000e+000 -1.000000e+000 0.000000e+000
      outer loop
         vertex 3.299000e+001 1.610000e-001 2.683900e+001
         vertex 3.300000e+001 1.610000e-001 2.683900e+001
         vertex 3.299000e+001 1.610000e-001 2.700000e+001
      endloop
   endfacet
   facet normal 0.000000e+000 -1.000000e+000 0.000000e+000
      outer loop
         vertex 3.299000e+001 1.610000e-001 2.700000e+001
         vertex 3.300000e+001 1.610000e-001 2.683900e+001
         vertex 3.300000e+001 1.610000e-001 2.700000e+001
      endloop
   endfacet
   facet normal 0.000000e+000 -1.000000e+000 0.000000e+000
      outer loop
         vertex 8.849001e+000 1.610000e-001 2.700000e+001
         vertex 8.839001e+000 1.610000e-001 2.700000e+001
         vertex 8.849001e+000 1.610000e-001 2.683900e+001
      endloop
   endfacet
   facet normal 0.000000e+000 -1.000000e+000 0.000000e+000
      outer loop
         vertex 8.849001e+000 1.610000e-001 2.683900e+001
         vertex 8.839001e+000 1.610000e-001 2.700000e+001
         vertex 8.839001e+000 1.610000e-001 2.683900e+001
      endloop
   endfacet
   facet normal -1.000000e+000 0.000000e+000 0.000000e+000
      outer loop
         vertex 8.839001e+000 1.610000e-001 2.683900e+001
         vertex 8.839001e+000 1.610000e-001 2.700000e+001
         vertex 8.839001e+000 1.808050e+001 2.683900e+001
      endloop
   endfacet
   facet normal -1.000000e+000 0.000000e+000 0.000000e+000
      outer loop
         vertex 8.839001e+000 1.808050e+001 2.683900e+001
         vertex 8.839001e+000 1.610000e-001 2.700000e+001
         vertex 8.839001e+000 1.816100e+001 2.700000e+001
      endloop
   endfacet
   facet normal -1.000000e+000 0.000000e+000 0.000000e+000
      outer loop
         vertex 8.839001e+000 1.808050e+001 2.683900e+001
         vertex 8.839001e+000 1.816100e+001 2.700000e+001
         vertex 8.839001e+000 1.816100e+001 2.683900e+001
      endloop
   endfacet
   facet normal -1.000000e+000 0.000000e+000 0.000000e+000
      outer loop
         vertex 8.839001e+000 1.610000e-001 9.000000e+000
         vertex 8.839001e+000 8.049971e-002 9.000000e+000
         vertex 8.839001e+000 8.049971e-002 2.683900e+001
      endloop
   endfacet
   facet normal -1.000000e+000 0.000000e+000 0.000000e+000
      outer loop
         vertex 8.839001e+000 8.049971e-002 2.683900e+001
         vertex 8.839001e+000 1.610000e-001 2.683900e+001
         vertex 8.839001e+000 1.610000e-001 9.000000e+000
      endloop
   endfacet
   facet normal -1.000000e+000 0.000000e+000 0.000000e+000
      outer loop
         vertex 8.839001e+000 1.610000e-001 9.000000e+000
         vertex 8.839001e+000 1.610000e-001 2.683900e+001
         vertex 8.839001e+000 1.808050e+001 2.683900e+001
      endloop
   endfacet
   facet normal -1.000000e+000 0.000000e+000 0.000000e+000
      outer loop
         vertex 8.839001e+000 1.610000e-001 9.000000e+000
         vertex 8.839001e+000 1.808050e+001 2.683900e+001
         vertex 8.839001e+000 1.610000e-001 8.839001e+000
      endloop
   endfacet
   facet normal -1.000000e+000 0.000000e+000 0.000000e+000
      outer loop
         vertex 8.839001e+000 1.610000e-001 8.839001e+000
         vertex 8.839001e+000 1.808050e+001 2.683900e+001
         vertex 8.839001e+000 1.808050e+001 9.000000e+000
      endloop
   endfacet
   facet normal -1.000000e+000 0.000000e+000 0.000000e+000
      outer loop
         vertex 8.839001e+000 1.610000e-001 8.839001e+000
         vertex 8.839001e+000 1.808050e+001 9.000000e+000
         vertex 8.839001e+000 1.816100e+001 8.839001e+000
      endloop
   endfacet
   facet normal -1.000000e+000 0.000000e+000 0.000000e+000
      outer loop
         vertex 8.839001e+000 1.816100e+001 8.839001e+000
         vertex 8.839001e+000 1.808050e+001 9.000000e+000
         vertex 8.839001e+000 1.816100e+001 9.000000e+000
      endloop
   endfacet
   facet normal 0.000000e+000 0.000000e+000 1.000000e+000
      outer loop
         vertex 3.299000e+001 0.000000e+000 2.700000e+001
         vertex 3.299000e+001 1.610000e-001 2.700000e+001
         vertex 8.849001e+000 0.000000e+000 2.700000e+001
      endloop
   endfacet
   facet normal 0.000000e+000 0.000000e+000 1.000000e+000
      outer loop
         vertex 8.849001e+000 0.000000e+000 2.700000e+001
         vertex 3.299000e+001 1.610000e-001 2.700000e+001
         vertex 8.849001e+000 1.610000e-001 2.700000e+001
      endloop
   endfacet
   facet normal 0.000000e+000 0.000000e+000 1.000000e+000
      outer loop
         vertex 3.300000e+001 1.610000e-001 2.700000e+001
         vertex 3.300000e+001 1.816100e+001 2.700000e+001
         vertex 3.299000e+001 1.610000e-001 2.700000e+001
      endloop
   endfacet
   facet normal 0.000000e+000 0.000000e+000 1.000000e+000
      outer loop
         vertex 3.299000e+001 1.610000e-001 2.700000e+001
         vertex 3.300000e+001 1.816100e+001 2.700000e+001
         vertex 3.299000e+001 1.816100e+001 2.700000e+001
      endloop
   endfacet
   facet normal 0.000000e+000 0.000000e+000 1.000000e+000
      outer loop
         vertex 3.299000e+001 1.610000e-001 2.700000e+001
         vertex 3.299000e+001 1.816100e+001 2.700000e+001
         vertex 8.849001e+000 1.610000e-001 2.700000e+001
      endloop
   endfacet
   facet normal 0.000000e+000 0.000000e+000 1.000000e+000
      outer loop
         vertex 8.849001e+000 1.610000e-001 2.700000e+001
         vertex 3.299000e+001 1.816100e+001 2.700000e+001
         vertex 8.849001e+000 1.816100e+001 2.700000e+001
      endloop
   endfacet
   facet normal 0.000000e+000 0.000000e+000 1.000000e+000
      outer loop
         vertex 8.849001e+000 1.610000e-001 2.700000e+001
         vertex 8.849001e+000 1.816100e+001 2.700000e+001
         vertex 8.839001e+000 1.610000e-001 2.700000e+001
      endloop
   endfacet
   facet normal 0.000000e+000 0.000000e+000 1.000000e+000
      outer loop
         vertex 8.839001e+000 1.610000e-001 2.700000e+001
         vertex 8.849001e+000 1.816100e+001 2.700000e+001
         vertex 8.839001e+000 1.816100e+001 2.700000e+001
      endloop
   endfacet
   facet normal 0.000000e+000 0.000000e+000 -1.000000e+000
      outer loop
         vertex 8.849001e+000 0.000000e+000 8.839001e+000
         vertex 8.849001e+000 1.610000e-001 8.839001e+000
         vertex 3.299000e+001 0.000000e+000 8.839001e+000
      endloop
   endfacet
   facet normal 0.000000e+000 0.000000e+000 -1.000000e+000
      outer loop
         vertex 3.299000e+001 0.000000e+000 8.839001e+000
         vertex 8.849001e+000 1.610000e-001 8.839001e+000
         vertex 3.299000e+001 1.610000e-001 8.839001e+000
      endloop
   endfacet
   facet normal 0.000000e+000 0.000000e+000 -1.000000e+000
      outer loop
         vertex 8.839001e+000 1.610000e-001 8.839001e+000
         vertex 8.839001e+000 1.816100e+001 8.839001e+000
         vertex 8.849001e+000 1.610000e-001 8.839001e+000
      endloop
   endfacet
   facet normal 0.000000e+000 0.000000e+000 -1.000000e+000
      outer loop
         vertex 8.849001e+000 1.610000e-001 8.839001e+000
         vertex 8.839001e+000 1.816100e+001 8.839001e+000
         vertex 8.849001e+000 1.816100e+001 8.839001e+000
      endloop
   endfacet
   facet normal 0.000000e+000 0.000000e+000 -1.000000e+000
      outer loop
         vertex 8.849001e+000 1.610000e-001 8.839001e+000
         vertex 8.849001e+000 1.816100e+001 8.839001e+000
         vertex 3.299000e+001 1.610000e-001 8.839001e+000
      endloop
   endfacet
   facet normal 0.000000e+000 0.000000e+000 -1.000000e+000
      outer loop
         vertex 3.299000e+001 1.610000e-001 8.839001e+000
         vertex 8.849001e+000 1.816100e+001 8.839001e+000
         vertex 3.299000e+001 1.816100e+001 8.839001e+000
      endloop
   endfacet
   facet normal 0.000000e+000 0.000000e+000 -1.000000e+000
      outer loop
         vertex 3.299000e+001 1.610000e-001 8.839001e+000
         vertex 3.299000e+001 1.816100e+001 8.839001e+000
         vertex 3.300000e+001 1.610000e-001 8.839001e+000
      endloop
   endfacet
   facet normal 0.000000e+000 0.000000e+000 -1.000000e+000
      outer loop
         vertex 3.300000e+001 1.610000e-001 8.839001e+000
         vertex 3.299000e+001 1.816100e+001 8.839001e+000
         vertex 3.300000e+001 1.816100e+001 8.839001e+000
      endloop
   endfacet
   facet normal 1.000000e+000 0.000000e+000 0.000000e+000
      outer loop
         vertex 9.000001e+000 1.824150e+001 9.000000e+000
         vertex 9.000001e+000 1.824150e+001 2.683900e+001
         vertex 9.000001e+000 2.414997e-001 9.000000e+000
      endloop
   endfacet
   facet normal 1.000000e+000 0.000000e+000 0.000000e+000
      outer loop
         vertex 9.000001e+000 2.414997e-001 9.000000e+000
         vertex 9.000001e+000 1.824150e+001 2.683900e+001
         vertex 9.000001e+000 2.414997e-001 2.683900e+001
      endloop
   endfacet
   facet normal 0.000000e+000 0.000000e+000 -1.000000e+000
      outer loop
         vertex 1.800000e+001 2.414997e-001 2.683900e+001
         vertex 9.000001e+000 2.414997e-001 2.683900e+001
         vertex 9.000001e+000 1.824150e+001 2.683900e+001
      endloop
   endfacet
   facet normal 0.000000e+000 0.000000e+000 -1.000000e+000
      outer loop
         vertex 2.383900e+001 1.610000e-001 2.683900e+001
         vertex 1.800000e+001 1.610000e-001 2.683900e+001
         vertex 2.383900e+001 2.414997e-001 2.683900e+001
      endloop
   endfacet
   facet normal 0.000000e+000 0.000000e+000 -1.000000e+000
      outer loop
         vertex 2.383900e+001 2.414997e-001 2.683900e+001
         vertex 1.800000e+001 1.610000e-001 2.683900e+001
         vertex 1.800000e+001 2.414997e-001 2.683900e+001
      endloop
   endfacet
   facet normal 0.000000e+000 0.000000e+000 -1.000000e+000
      outer loop
         vertex 1.800000e+001 2.414997e-001 2.683900e+001
         vertex 9.000001e+000 1.824150e+001 2.683900e+001
         vertex 2.383900e+001 2.414997e-001 2.683900e+001
      endloop
   endfacet
   facet normal 0.000000e+000 0.000000e+000 -1.000000e+000
      outer loop
         vertex 2.383900e+001 2.414997e-001 2.683900e+001
         vertex 9.000001e+000 1.824150e+001 2.683900e+001
         vertex 3.283900e+001 1.824150e+001 2.683900e+001
      endloop
   endfacet
   facet normal 0.000000e+000 0.000000e+000 -1.000000e+000
      outer loop
         vertex 2.383900e+001 2.414997e-001 2.683900e+001
         vertex 3.283900e+001 1.824150e+001 2.683900e+001
         vertex 3.283900e+001 2.414997e-001 2.683900e+001
      endloop
   endfacet
   facet normal 0.000000e+000 0.000000e+000 -1.000000e+000
      outer loop
         vertex 8.849001e+000 1.824150e+001 2.683900e+001
         vertex 8.849001e+000 1.832200e+001 2.683900e+001
         vertex 9.000001e+000 1.824150e+001 2.683900e+001
      endloop
   endfacet
   facet normal 0.000000e+000 0.000000e+000 -1.000000e+000
      outer loop
         vertex 9.000001e+000 1.824150e+001 2.683900e+001
         vertex 8.849001e+000 1.832200e+001 2.683900e+001
         vertex 3.299000e+001 1.832200e+001 2.683900e+001
      endloop
   endfacet
   facet normal 0.000000e+000 0.000000e+000 -1.000000e+000
      outer loop
         vertex 9.000001e+000 1.824150e+001 2.683900e+001
         vertex 3.299000e+001 1.832200e+001 2.683900e+001
         vertex 3.283900e+001 1.824150e+001 2.683900e+001
      endloop
   endfacet
   facet normal 0.000000e+000 0.000000e+000 -1.000000e+000
      outer loop
         vertex 3.283900e+001 1.824150e+001 2.683900e+001
         vertex 3.299000e+001 1.832200e+001 2.683900e+001
         vertex 3.299000e+001 1.824150e+001 2.683900e+001
      endloop
   endfacet
   facet normal -1.000000e+000 0.000000e+000 0.000000e+000
      outer loop
         vertex 3.283900e+001 2.414997e-001 2.683900e+001
         vertex 3.283900e+001 1.824150e+001 2.683900e+001
         vertex 3.283900e+001 2.414997e-001 9.000000e+000
      endloop
   endfacet
   facet normal -1.000000e+000 0.000000e+000 0.000000e+000
      outer loop
         vertex 3.283900e+001 2.414997e-001 9.000000e+000
         vertex 3.283900e+001 1.824150e+001 2.683900e+001
         vertex 3.283900e+001 1.824150e+001 9.000000e+000
      endloop
   endfacet
   facet normal 0.000000e+000 0.000000e+000 1.000000e+000
      outer loop
         vertex 2.383900e+001 2.414997e-001 9.000000e+000
         vertex 3.283900e+001 2.414997e-001 9.000000e+000
         vertex 3.283900e+001 1.824150e+001 9.000000e+000
      endloop
   endfacet
   facet normal 0.000000e+000 0.000000e+000 1.000000e+000
      outer loop
         vertex 3.299000e+001 1.824150e+001 9.000000e+000
         vertex 3.299000e+001 1.832200e+001 9.000000e+000
         vertex 3.283900e+001 1.824150e+001 9.000000e+000
      endloop
   endfacet
   facet normal 0.000000e+000 0.000000e+000 1.000000e+000
      outer loop
         vertex 3.283900e+001 1.824150e+001 9.000000e+000
         vertex 3.299000e+001 1.832200e+001 9.000000e+000
         vertex 8.849001e+000 1.832200e+001 9.000000e+000
      endloop
   endfacet
   facet normal 0.000000e+000 0.000000e+000 1.000000e+000
      outer loop
         vertex 9.000001e+000 1.824150e+001 9.000000e+000
         vertex 9.000001e+000 2.414997e-001 9.000000e+000
         vertex 1.800000e+001 2.414997e-001 9.000000e+000
      endloop
   endfacet
   facet normal 0.000000e+000 0.000000e+000 1.000000e+000
      outer loop
         vertex 1.800000e+001 2.414997e-001 9.000000e+000
         vertex 1.800000e+001 1.610000e-001 9.000000e+000
         vertex 2.383900e+001 1.610000e-001 9.000000e+000
      endloop
   endfacet
   facet normal 0.000000e+000 0.000000e+000 1.000000e+000
      outer loop
         vertex 2.383900e+001 1.610000e-001 9.000000e+000
         vertex 2.383900e+001 2.414997e-001 9.000000e+000
         vertex 1.800000e+001 2.414997e-001 9.000000e+000
      endloop
   endfacet
   facet normal 0.000000e+000 0.000000e+000 1.000000e+000
      outer loop
         vertex 1.800000e+001 2.414997e-001 9.000000e+000
         vertex 2.383900e+001 2.414997e-001 9.000000e+000
         vertex 3.283900e+001 1.824150e+001 9.000000e+000
      endloop
   endfacet
   facet normal 0.000000e+000 0.000000e+000 1.000000e+000
      outer loop
         vertex 1.800000e+001 2.414997e-001 9.000000e+000
         vertex 3.283900e+001 1.824150e+001 9.000000e+000
         vertex 9.000001e+000 1.824150e+001 9.000000e+000
      endloop
   endfacet
   facet normal 0.000000e+000 0.000000e+000 1.000000e+000
      outer loop
         vertex 9.000001e+000 1.824150e+001 9.000000e+000
         vertex 3.283900e+001 1.824150e+001 9.000000e+000
         vertex 8.849001e+000 1.832200e+001 9.000000e+000
      endloop
   endfacet
   facet normal 0.000000e+000 0.000000e+000 1.000000e+000
      outer loop
         vertex 9.000001e+000 1.824150e+001 9.000000e+000
         vertex 8.849001e+000 1.832200e+001 9.000000e+000
         vertex 8.849001e+000 1.824150e+001 9.000000e+000
      endloop
   endfacet
   facet normal 0.000000e+000 0.000000e+000 1.000000e+000
      outer loop
         vertex 8.839001e+000 1.610000e-001 2.683900e+001
         vertex 8.839001e+000 8.049971e-002 2.683900e+001
         vertex 8.849001e+000 1.610000e-001 2.683900e+001
      endloop
   endfacet
   facet normal 0.000000e+000 0.000000e+000 1.000000e+000
      outer loop
         vertex 8.849001e+000 1.610000e-001 2.683900e+001
         vertex 8.839001e+000 8.049971e-002 2.683900e+001
         vertex 8.849001e+000 8.049971e-002 2.683900e+001
      endloop
   endfacet
   facet normal 0.000000e+000 1.000000e+000 3.062781e-016
      outer loop
         vertex 9.000001e+000 2.414997e-001 2.683900e+001
         vertex 1.800000e+001 2.414997e-001 2.683900e+001
         vertex 9.000001e+000 2.414997e-001 9.000000e+000
      endloop
   endfacet
   facet normal 0.000000e+000 1.000000e+000 3.062781e-016
      outer loop
         vertex 9.000001e+000 2.414997e-001 9.000000e+000
         vertex 1.800000e+001 2.414997e-001 2.683900e+001
         vertex 1.800000e+001 2.414997e-001 9.000000e+000
      endloop
   endfacet
   facet normal 0.000000e+000 0.000000e+000 1.000000e+000
      outer loop
         vertex 3.300000e+001 8.049971e-002 2.683900e+001
         vertex 3.300000e+001 1.610000e-001 2.683900e+001
         vertex 3.299000e+001 8.049971e-002 2.683900e+001
      endloop
   endfacet
   facet normal 0.000000e+000 0.000000e+000 1.000000e+000
      outer loop
         vertex 3.299000e+001 8.049971e-002 2.683900e+001
         vertex 3.300000e+001 1.610000e-001 2.683900e+001
         vertex 3.299000e+001 1.610000e-001 2.683900e+001
      endloop
   endfacet
   facet normal 0.000000e+000 1.000000e+000 3.062781e-016
      outer loop
         vertex 3.283900e+001 2.414997e-001 9.000000e+000
         vertex 2.383900e+001 2.414997e-001 9.000000e+000
         vertex 3.283900e+001 2.414997e-001 2.683900e+001
      endloop
   endfacet
   facet normal 0.000000e+000 1.000000e+000 3.062781e-016
      outer loop
         vertex 3.283900e+001 2.414997e-001 2.683900e+001
         vertex 2.383900e+001 2.414997e-001 9.000000e+000
         vertex 2.383900e+001 2.414997e-001 2.683900e+001
      endloop
   endfacet
   facet normal 1.000000e+000 0.000000e+000 0.000000e+000
      outer loop
         vertex 3.299000e+001 1.610000e-001 2.683900e+001
         vertex 3.299000e+001 1.610000e-001 2.700000e+001
         vertex 3.299000e+001 8.049971e-002 2.683900e+001
      endloop
   endfacet
   facet normal 1.000000e+000 0.000000e+000 0.000000e+000
      outer loop
         vertex 3.299000e+001 8.049971e-002 2.683900e+001
         vertex 3.299000e+001 1.610000e-001 2.700000e+001
         vertex 3.299000e+001 0.000000e+000 2.700000e+001
      endloop
   endfacet
   facet normal 1.000000e+000 0.000000e+000 0.000000e+000
      outer loop
         vertex 3.299000e+001 8.049971e-002 2.683900e+001
         vertex 3.299000e+001 0.000000e+000 2.700000e+001
         vertex 3.299000e+001 8.049971e-002 1.792050e+001
      endloop
   endfacet
   facet normal 1.000000e+000 0.000000e+000 0.000000e+000
      outer loop
         vertex 3.299000e+001 8.049971e-002 1.792050e+001
         vertex 3.299000e+001 0.000000e+000 2.700000e+001
         vertex 3.299000e+001 0.000000e+000 1.792050e+001
      endloop
   endfacet
   facet normal 0.000000e+000 -1.000000e+000 0.000000e+000
      outer loop
         vertex 8.849001e+000 0.000000e+000 1.792050e+001
         vertex 3.299000e+001 0.000000e+000 1.792050e+001
         vertex 8.849001e+000 0.000000e+000 2.700000e+001
      endloop
   endfacet
   facet normal 0.000000e+000 -1.000000e+000 0.000000e+000
      outer loop
         vertex 8.849001e+000 0.000000e+000 2.700000e+001
         vertex 3.299000e+001 0.000000e+000 1.792050e+001
         vertex 3.299000e+001 0.000000e+000 2.700000e+001
      endloop
   endfacet
   facet normal -1.000000e+000 0.000000e+000 0.000000e+000
      outer loop
         vertex 8.849001e+000 8.049971e-002 1.792050e+001
         vertex 8.849001e+000 0.000000e+000 1.792050e+001
         vertex 8.849001e+000 8.049971e-002 2.683900e+001
      endloop
   endfacet
   facet normal -1.000000e+000 0.000000e+000 0.000000e+000
      outer loop
         vertex 8.849001e+000 8.049971e-002 2.683900e+001
         vertex 8.849001e+000 0.000000e+000 1.792050e+001
         vertex 8.849001e+000 0.000000e+000 2.700000e+001
      endloop
   endfacet
   facet normal -1.000000e+000 0.000000e+000 0.000000e+000
      outer loop
         vertex 8.849001e+000 8.049971e-002 2.683900e+001
         vertex 8.849001e+000 0.000000e+000 2.700000e+001
         vertex 8.849001e+000 1.610000e-001 2.683900e+001
      endloop
   endfacet
   facet normal -1.000000e+000 0.000000e+000 0.000000e+000
      outer loop
         vertex 8.849001e+000 1.610000e-001 2.683900e+001
         vertex 8.849001e+000 0.000000e+000 2.700000e+001
         vertex 8.849001e+000 1.610000e-001 2.700000e+001
      endloop
   endfacet
   facet normal 0.000000e+000 1.000000e+000 0.000000e+000
      outer loop
         vertex 2.383900e+001 1.610000e-001 2.683900e+001
         vertex 2.383900e+001 1.610000e-001 1.792050e+001
         vertex 1.800000e+001 1.610000e-001 2.683900e+001
      endloop
   endfacet
   facet normal 0.000000e+000 1.000000e+000 0.000000e+000
      outer loop
         vertex 1.800000e+001 1.610000e-001 2.683900e+001
         vertex 2.383900e+001 1.610000e-001 1.792050e+001
         vertex 1.800000e+001 1.610000e-001 1.792050e+001
      endloop
   endfacet
   facet normal 0.000000e+000 0.000000e+000 -1.000000e+000
      outer loop
         vertex 2.383900e+001 8.049971e-002 1.792050e+001
         vertex 3.299000e+001 8.049971e-002 1.792050e+001
         vertex 3.299000e+001 0.000000e+000 1.792050e+001
      endloop
   endfacet
   facet normal 0.000000e+000 0.000000e+000 -1.000000e+000
      outer loop
         vertex 8.849001e+000 0.000000e+000 1.792050e+001
         vertex 8.849001e+000 8.049971e-002 1.792050e+001
         vertex 1.800000e+001 8.049971e-002 1.792050e+001
      endloop
   endfacet
   facet normal 0.000000e+000 0.000000e+000 -1.000000e+000
      outer loop
         vertex 1.800000e+001 1.610000e-001 1.792050e+001
         vertex 2.383900e+001 1.610000e-001 1.792050e+001
         vertex 1.800000e+001 8.049971e-002 1.792050e+001
      endloop
   endfacet
   facet normal 0.000000e+000 0.000000e+000 -1.000000e+000
      outer loop
         vertex 1.800000e+001 8.049971e-002 1.792050e+001
         vertex 2.383900e+001 1.610000e-001 1.792050e+001
         vertex 2.383900e+001 8.049971e-002 1.792050e+001
      endloop
   endfacet
   facet normal 0.000000e+000 0.000000e+000 -1.000000e+000
      outer loop
         vertex 1.800000e+001 8.049971e-002 1.792050e+001
         vertex 2.383900e+001 8.049971e-002 1.792050e+001
         vertex 8.849001e+000 0.000000e+000 1.792050e+001
      endloop
   endfacet
   facet normal 0.000000e+000 0.000000e+000 -1.000000e+000
      outer loop
         vertex 8.849001e+000 0.000000e+000 1.792050e+001
         vertex 2.383900e+001 8.049971e-002 1.792050e+001
         vertex 3.299000e+001 0.000000e+000 1.792050e+001
      endloop
   endfacet
   facet normal 1.000000e+000 0.000000e+000 0.000000e+000
      outer loop
         vertex 3.299000e+001 8.049971e-002 1.791850e+001
         vertex 3.299000e+001 0.000000e+000 1.791850e+001
         vertex 3.299000e+001 8.049971e-002 9.000000e+000
      endloop
   endfacet
   facet normal 1.000000e+000 0.000000e+000 0.000000e+000
      outer loop
         vertex 3.299000e+001 8.049971e-002 9.000000e+000
         vertex 3.299000e+001 0.000000e+000 1.791850e+001
         vertex 3.299000e+001 0.000000e+000 8.839001e+000
      endloop
   endfacet
   facet normal 1.000000e+000 0.000000e+000 0.000000e+000
      outer loop
         vertex 3.299000e+001 8.049971e-002 9.000000e+000
         vertex 3.299000e+001 0.000000e+000 8.839001e+000
         vertex 3.299000e+001 1.610000e-001 9.000000e+000
      endloop
   endfacet
   facet normal 1.000000e+000 0.000000e+000 0.000000e+000
      outer loop
         vertex 3.299000e+001 1.610000e-001 9.000000e+000
         vertex 3.299000e+001 0.000000e+000 8.839001e+000
         vertex 3.299000e+001 1.610000e-001 8.839001e+000
      endloop
   endfacet
   facet normal 0.000000e+000 1.000000e+000 0.000000e+000
      outer loop
         vertex 1.800000e+001 1.610000e-001 1.791850e+001
         vertex 2.383900e+001 1.610000e-001 1.791850e+001
         vertex 1.800000e+001 1.610000e-001 9.000000e+000
      endloop
   endfacet
   facet normal 0.000000e+000 1.000000e+000 0.000000e+000
      outer loop
         vertex 1.800000e+001 1.610000e-001 9.000000e+000
         vertex 2.383900e+001 1.610000e-001 1.791850e+001
         vertex 2.383900e+001 1.610000e-001 9.000000e+000
      endloop
   endfacet
   facet normal -1.000000e+000 0.000000e+000 0.000000e+000
      outer loop
         vertex 8.849001e+000 1.610000e-001 9.000000e+000
         vertex 8.849001e+000 1.610000e-001 8.839001e+000
         vertex 8.849001e+000 8.049971e-002 9.000000e+000
      endloop
   endfacet
   facet normal -1.000000e+000 0.000000e+000 0.000000e+000
      outer loop
         vertex 8.849001e+000 8.049971e-002 9.000000e+000
         vertex 8.849001e+000 1.610000e-001 8.839001e+000
         vertex 8.849001e+000 0.000000e+000 8.839001e+000
      endloop
   endfacet
   facet normal -1.000000e+000 0.000000e+000 0.000000e+000
      outer loop
         vertex 8.849001e+000 8.049971e-002 9.000000e+000
         vertex 8.849001e+000 0.000000e+000 8.839001e+000
         vertex 8.849001e+000 8.049971e-002 1.791850e+001
      endloop
   endfacet
   facet normal -1.000000e+000 0.000000e+000 0.000000e+000
      outer loop
         vertex 8.849001e+000 8.049971e-002 1.791850e+001
         vertex 8.849001e+000 0.000000e+000 8.839001e+000
         vertex 8.849001e+000 0.000000e+000 1.791850e+001
      endloop
   endfacet
   facet normal 0.000000e+000 -1.000000e+000 0.000000e+000
      outer loop
         vertex 3.299000e+001 0.000000e+000 1.791850e+001
         vertex 8.849001e+000 0.000000e+000 1.791850e+001
         vertex 3.299000e+001 0.000000e+000 8.839001e+000
      endloop
   endfacet
   facet normal 0.000000e+000 -1.000000e+000 0.000000e+000
      outer loop
         vertex 3.299000e+001 0.000000e+000 8.839001e+000
         vertex 8.849001e+000 0.000000e+000 1.791850e+001
         vertex 8.849001e+000 0.000000e+000 8.839001e+000
      endloop
   endfacet
   facet normal 0.000000e+000 0.000000e+000 1.000000e+000
      outer loop
         vertex 8.849001e+000 0.000000e+000 1.791850e+001
         vertex 3.299000e+001 0.000000e+000 1.791850e+001
         vertex 2.383900e+001 8.049971e-002 1.791850e+001
      endloop
   endfacet
   facet normal 0.000000e+000 0.000000e+000 1.000000e+000
      outer loop
         vertex 2.383900e+001 8.049971e-002 1.791850e+001
         vertex 3.299000e+001 0.000000e+000 1.791850e+001
         vertex 3.299000e+001 8.049971e-002 1.791850e+001
      endloop
   endfacet
   facet normal 0.000000e+000 0.000000e+000 1.000000e+000
      outer loop
         vertex 8.849001e+000 8.049971e-002 1.791850e+001
         vertex 8.849001e+000 0.000000e+000 1.791850e+001
         vertex 1.800000e+001 8.049971e-002 1.791850e+001
      endloop
   endfacet
   facet normal 0.000000e+000 0.000000e+000 1.000000e+000
      outer loop
         vertex 1.800000e+001 8.049971e-002 1.791850e+001
         vertex 8.849001e+000 0.000000e+000 1.791850e+001
         vertex 2.383900e+001 8.049971e-002 1.791850e+001
      endloop
   endfacet
   facet normal 0.000000e+000 0.000000e+000 1.000000e+000
      outer loop
         vertex 1.800000e+001 8.049971e-002 1.791850e+001
         vertex 2.383900e+001 8.049971e-002 1.791850e+001
         vertex 1.800000e+001 1.610000e-001 1.791850e+001
      endloop
   endfacet
   facet normal 0.000000e+000 0.000000e+000 1.000000e+000
      outer loop
         vertex 1.800000e+001 1.610000e-001 1.791850e+001
         vertex 2.383900e+001 8.049971e-002 1.791850e+001
         vertex 2.383900e+001 1.610000e-001 1.791850e+001
      endloop
   endfacet
   facet normal 0.000000e+000 -1.000000e+000 0.000000e+000
      outer loop
         vertex 0.000000e+000 1.808050e+001 2.683900e+001
         vertex 0.000000e+000 1.808050e+001 9.000000e+000
         vertex 8.839001e+000 1.808050e+001 2.683900e+001
      endloop
   endfacet
   facet normal 0.000000e+000 -1.000000e+000 0.000000e+000
      outer loop
         vertex 8.839001e+000 1.808050e+001 2.683900e+001
         vertex 0.000000e+000 1.808050e+001 9.000000e+000
         vertex 8.839001e+000 1.808050e+001 9.000000e+000
      endloop
   endfacet
   facet normal 0.000000e+000 0.000000e+000 1.000000e+000
      outer loop
         vertex 8.849001e+000 1.816100e+001 2.683900e+001
         vertex 8.849001e+000 1.824150e+001 2.683900e+001
         vertex 8.839001e+000 1.816100e+001 2.683900e+001
      endloop
   endfacet
   facet normal 0.000000e+000 0.000000e+000 1.000000e+000
      outer loop
         vertex 8.839001e+000 1.816100e+001 2.683900e+001
         vertex 8.849001e+000 1.824150e+001 2.683900e+001
         vertex 0.000000e+000 1.824150e+001 2.683900e+001
      endloop
   endfacet
   facet normal 0.000000e+000 0.000000e+000 1.000000e+000
      outer loop
         vertex 8.839001e+000 1.816100e+001 2.683900e+001
         vertex 0.000000e+000 1.824150e+001 2.683900e+001
         vertex 8.839001e+000 1.808050e+001 2.683900e+001
      endloop
   endfacet
   facet normal 0.000000e+000 0.000000e+000 1.000000e+000
      outer loop
         vertex 8.839001e+000 1.808050e+001 2.683900e+001
         vertex 0.000000e+000 1.824150e+001 2.683900e+001
         vertex 0.000000e+000 1.808050e+001 2.683900e+001
      endloop
   endfacet
   facet normal 0.000000e+000 1.000000e+000 6.125563e-016
      outer loop
         vertex 0.000000e+000 1.824150e+001 9.000000e+000
         vertex 0.000000e+000 1.824150e+001 2.683900e+001
         vertex 8.849001e+000 1.824150e+001 9.000000e+000
      endloop
   endfacet
   facet normal 0.000000e+000 1.000000e+000 6.125563e-016
      outer loop
         vertex 8.849001e+000 1.824150e+001 9.000000e+000
         vertex 0.000000e+000 1.824150e+001 2.683900e+001
         vertex 8.849001e+000 1.824150e+001 2.683900e+001
      endloop
   endfacet
   facet normal 0.000000e+000 1.000000e+000 6.125563e-016
      outer loop
         vertex 8.849001e+000 1.824150e+001 9.000000e+000
         vertex 8.849001e+000 1.824150e+001 2.683900e+001
         vertex 9.000001e+000 1.824150e+001 9.000000e+000
      endloop
   endfacet
   facet normal 0.000000e+000 1.000000e+000 6.125563e-016
      outer loop
         vertex 9.000001e+000 1.824150e+001 9.000000e+000
         vertex 8.849001e+000 1.824150e+001 2.683900e+001
         vertex 9.000001e+000 1.824150e+001 2.683900e+001
      endloop
   endfacet
   facet normal -1.000000e+000 0.000000e+000 0.000000e+000
      outer loop
         vertex 0.000000e+000 1.824150e+001 9.000000e+000
         vertex 0.000000e+000 1.808050e+001 9.000000e+000
         vertex 0.000000e+000 1.824150e+001 2.683900e+001
      endloop
   endfacet
   facet normal -1.000000e+000 0.000000e+000 0.000000e+000
      outer loop
         vertex 0.000000e+000 1.824150e+001 2.683900e+001
         vertex 0.000000e+000 1.808050e+001 9.000000e+000
         vertex 0.000000e+000 1.808050e+001 2.683900e+001
      endloop
   endfacet
   facet normal 0.000000e+000 -1.000000e+000 0.000000e+000
      outer loop
         vertex 3.300000e+001 1.808050e+001 9.000000e+000
         vertex 4.183900e+001 1.808050e+001 9.000000e+000
         vertex 3.300000e+001 1.808050e+001 2.683900e+001
      endloop
   endfacet
   facet normal 0.000000e+000 -1.000000e+000 0.000000e+000
      outer loop
         vertex 3.300000e+001 1.808050e+001 2.683900e+001
         vertex 4.183900e+001 1.808050e+001 9.000000e+000
         vertex 4.183900e+001 1.808050e+001 2.683900e+001
      endloop
   endfacet
   facet normal 0.000000e+000 0.000000e+000 1.000000e+000
      outer loop
         vertex 3.299000e+001 1.824150e+001 2.683900e+001
         vertex 3.299000e+001 1.816100e+001 2.683900e+001
         vertex 3.300000e+001 1.816100e+001 2.683900e+001
      endloop
   endfacet
   facet normal 0.000000e+000 0.000000e+000 1.000000e+000
      outer loop
         vertex 3.300000e+001 1.808050e+001 2.683900e+001
         vertex 4.183900e+001 1.808050e+001 2.683900e+001
         vertex 3.300000e+001 1.816100e+001 2.683900e+001
      endloop
   endfacet
   facet normal 0.000000e+000 0.000000e+000 1.000000e+000
      outer loop
         vertex 3.300000e+001 1.816100e+001 2.683900e+001
         vertex 4.183900e+001 1.808050e+001 2.683900e+001
         vertex 4.183900e+001 1.824150e+001 2.683900e+001
      endloop
   endfacet
   facet normal 0.000000e+000 0.000000e+000 1.000000e+000
      outer loop
         vertex 3.300000e+001 1.816100e+001 2.683900e+001
         vertex 4.183900e+001 1.824150e+001 2.683900e+001
         vertex 3.299000e+001 1.824150e+001 2.683900e+001
      endloop
   endfacet
   facet normal 0.000000e+000 1.000000e+000 6.125563e-016
      outer loop
         vertex 4.183900e+001 1.824150e+001 2.683900e+001
         vertex 4.183900e+001 1.824150e+001 9.000000e+000
         vertex 3.299000e+001 1.824150e+001 2.683900e+001
      endloop
   endfacet
   facet normal 0.000000e+000 1.000000e+000 6.125563e-016
      outer loop
         vertex 3.299000e+001 1.824150e+001 2.683900e+001
         vertex 4.183900e+001 1.824150e+001 9.000000e+000
         vertex 3.299000e+001 1.824150e+001 9.000000e+000
      endloop
   endfacet
   facet normal 0.000000e+000 1.000000e+000 6.125563e-016
      outer loop
         vertex 3.299000e+001 1.824150e+001 2.683900e+001
         vertex 3.299000e+001 1.824150e+001 9.000000e+000
         vertex 3.283900e+001 1.824150e+001 2.683900e+001
      endloop
   endfacet
   facet normal 0.000000e+000 1.000000e+000 6.125563e-016
      outer loop
         vertex 3.283900e+001 1.824150e+001 2.683900e+001
         vertex 3.299000e+001 1.824150e+001 9.000000e+000
         vertex 3.283900e+001 1.824150e+001 9.000000e+000
      endloop
   endfacet
   facet normal 1.000000e+000 0.000000e+000 0.000000e+000
      outer loop
         vertex 4.183900e+001 1.808050e+001 9.000000e+000
         vertex 4.183900e+001 1.824150e+001 9.000000e+000
         vertex 4.183900e+001 1.808050e+001 2.683900e+001
      endloop
   endfacet
   facet normal 1.000000e+000 0.000000e+000 0.000000e+000
      outer loop
         vertex 4.183900e+001 1.808050e+001 2.683900e+001
         vertex 4.183900e+001 1.824150e+001 9.000000e+000
         vertex 4.183900e+001 1.824150e+001 2.683900e+001
      endloop
   endfacet
   facet normal 0.000000e+000 -1.000000e+000 0.000000e+000
      outer loop
         vertex 3.299000e+001 1.816100e+001 3.583900e+001
         vertex 8.849001e+000 1.816100e+001 3.583900e+001
         vertex 3.299000e+001 1.816100e+001 2.700000e+001
      endloop
   endfacet
   facet normal 0.000000e+000 -1.000000e+000 0.000000e+000
      outer loop
         vertex 3.299000e+001 1.816100e+001 2.700000e+001
         vertex 8.849001e+000 1.816100e+001 3.583900e+001
         vertex 8.849001e+000 1.816100e+001 2.700000e+001
      endloop
   endfacet
   facet normal -1.000000e+000 0.000000e+000 0.000000e+000
      outer loop
         vertex 8.849001e+000 1.824150e+001 2.683900e+001
         vertex 8.849001e+000 1.816100e+001 2.683900e+001
         vertex 8.849001e+000 1.816100e+001 2.700000e+001
      endloop
   endfacet
   facet normal -1.000000e+000 0.000000e+000 0.000000e+000
      outer loop
         vertex 8.849001e+000 1.816100e+001 3.583900e+001
         vertex 8.849001e+000 1.832200e+001 3.583900e+001
         vertex 8.849001e+000 1.816100e+001 2.700000e+001
      endloop
   endfacet
   facet normal -1.000000e+000 0.000000e+000 0.000000e+000
      outer loop
         vertex 8.849001e+000 1.816100e+001 2.700000e+001
         vertex 8.849001e+000 1.832200e+001 3.583900e+001
         vertex 8.849001e+000 1.832200e+001 2.683900e+001
      endloop
   endfacet
   facet normal -1.000000e+000 0.000000e+000 0.000000e+000
      outer loop
         vertex 8.849001e+000 1.816100e+001 2.700000e+001
         vertex 8.849001e+000 1.832200e+001 2.683900e+001
         vertex 8.849001e+000 1.824150e+001 2.683900e+001
      endloop
   endfacet
   facet normal 1.000000e+000 0.000000e+000 0.000000e+000
      outer loop
         vertex 3.299000e+001 1.832200e+001 3.583900e+001
         vertex 3.299000e+001 1.816100e+001 3.583900e+001
         vertex 3.299000e+001 1.832200e+001 2.683900e+001
      endloop
   endfacet
   facet normal 1.000000e+000 0.000000e+000 0.000000e+000
      outer loop
         vertex 3.299000e+001 1.832200e+001 2.683900e+001
         vertex 3.299000e+001 1.816100e+001 3.583900e+001
         vertex 3.299000e+001 1.816100e+001 2.700000e+001
      endloop
   endfacet
   facet normal 1.000000e+000 0.000000e+000 0.000000e+000
      outer loop
         vertex 3.299000e+001 1.832200e+001 2.683900e+001
         vertex 3.299000e+001 1.816100e+001 2.700000e+001
         vertex 3.299000e+001 1.824150e+001 2.683900e+001
      endloop
   endfacet
   facet normal 1.000000e+000 0.000000e+000 0.000000e+000
      outer loop
         vertex 3.299000e+001 1.824150e+001 2.683900e+001
         vertex 3.299000e+001 1.816100e+001 2.700000e+001
         vertex 3.299000e+001 1.816100e+001 2.683900e+001
      endloop
   endfacet
   facet normal 0.000000e+000 1.000000e+000 0.000000e+000
      outer loop
         vertex 8.849001e+000 1.832200e+001 3.583900e+001
         vertex 3.299000e+001 1.832200e+001 3.583900e+001
         vertex 8.849001e+000 1.832200e+001 2.683900e+001
      endloop
   endfacet
   facet normal 0.000000e+000 1.000000e+000 0.000000e+000
      outer loop
         vertex 8.849001e+000 1.832200e+001 2.683900e+001
         vertex 3.299000e+001 1.832200e+001 3.583900e+001
         vertex 3.299000e+001 1.832200e+001 2.683900e+001
      endloop
   endfacet
   facet normal 0.000000e+000 0.000000e+000 1.000000e+000
      outer loop
         vertex 3.299000e+001 1.816100e+001 3.583900e+001
         vertex 3.299000e+001 1.832200e+001 3.583900e+001
         vertex 8.849001e+000 1.816100e+001 3.583900e+001
      endloop
   endfacet
   facet normal 0.000000e+000 0.000000e+000 1.000000e+000
      outer loop
         vertex 8.849001e+000 1.816100e+001 3.583900e+001
         vertex 3.299000e+001 1.832200e+001 3.583900e+001
         vertex 8.849001e+000 1.832200e+001 3.583900e+001
      endloop
   endfacet
   facet normal 0.000000e+000 -1.000000e+000 0.000000e+000
      outer loop
         vertex 8.849001e+000 1.816100e+001 8.839001e+000
         vertex 8.849001e+000 1.816100e+001 0.000000e+000
         vertex 3.299000e+001 1.816100e+001 8.839001e+000
      endloop
   endfacet
   facet normal 0.000000e+000 -1.000000e+000 0.000000e+000
      outer loop
         vertex 3.299000e+001 1.816100e+001 8.839001e+000
         vertex 8.849001e+000 1.816100e+001 0.000000e+000
         vertex 3.299000e+001 1.816100e+001 0.000000e+000
      endloop
   endfacet
   facet normal -1.000000e+000 0.000000e+000 0.000000e+000
      outer loop
         vertex 8.849001e+000 1.824150e+001 9.000000e+000
         vertex 8.849001e+000 1.832200e+001 9.000000e+000
         vertex 8.849001e+000 1.832200e+001 0.000000e+000
      endloop
   endfacet
   facet normal -1.000000e+000 0.000000e+000 0.000000e+000
      outer loop
         vertex 8.849001e+000 1.832200e+001 0.000000e+000
         vertex 8.849001e+000 1.816100e+001 0.000000e+000
         vertex 8.849001e+000 1.824150e+001 9.000000e+000
      endloop
   endfacet
   facet normal -1.000000e+000 0.000000e+000 0.000000e+000
      outer loop
         vertex 8.849001e+000 1.824150e+001 9.000000e+000
         vertex 8.849001e+000 1.816100e+001 0.000000e+000
         vertex 8.849001e+000 1.816100e+001 8.839001e+000
      endloop
   endfacet
   facet normal -1.000000e+000 0.000000e+000 0.000000e+000
      outer loop
         vertex 8.849001e+000 1.824150e+001 9.000000e+000
         vertex 8.849001e+000 1.816100e+001 8.839001e+000
         vertex 8.849001e+000 1.816100e+001 9.000000e+000
      endloop
   endfacet
   facet normal 0.000000e+000 1.000000e+000 0.000000e+000
      outer loop
         vertex 3.299000e+001 1.832200e+001 0.000000e+000
         vertex 8.849001e+000 1.832200e+001 0.000000e+000
         vertex 3.299000e+001 1.832200e+001 9.000000e+000
      endloop
   endfacet
   facet normal 0.000000e+000 1.000000e+000 0.000000e+000
      outer loop
         vertex 3.299000e+001 1.832200e+001 9.000000e+000
         vertex 8.849001e+000 1.832200e+001 0.000000e+000
         vertex 8.849001e+000 1.832200e+001 9.000000e+000
      endloop
   endfacet
   facet normal 1.000000e+000 0.000000e+000 0.000000e+000
      outer loop
         vertex 3.299000e+001 1.832200e+001 0.000000e+000
         vertex 3.299000e+001 1.832200e+001 9.000000e+000
         vertex 3.299000e+001 1.824150e+001 9.000000e+000
      endloop
   endfacet
   facet normal 1.000000e+000 0.000000e+000 0.000000e+000
      outer loop
         vertex 3.299000e+001 1.816100e+001 0.000000e+000
         vertex 3.299000e+001 1.832200e+001 0.000000e+000
         vertex 3.299000e+001 1.816100e+001 8.839001e+000
      endloop
   endfacet
   facet normal 1.000000e+000 0.000000e+000 0.000000e+000
      outer loop
         vertex 3.299000e+001 1.816100e+001 8.839001e+000
         vertex 3.299000e+001 1.832200e+001 0.000000e+000
         vertex 3.299000e+001 1.824150e+001 9.000000e+000
      endloop
   endfacet
   facet normal 1.000000e+000 0.000000e+000 0.000000e+000
      outer loop
         vertex 3.299000e+001 1.816100e+001 8.839001e+000
         vertex 3.299000e+001 1.824150e+001 9.000000e+000
         vertex 3.299000e+001 1.816100e+001 9.000000e+000
      endloop
   endfacet
   facet normal 0.000000e+000 0.000000e+000 -1.000000e+000
      outer loop
         vertex 3.299000e+001 1.832200e+001 0.000000e+000
         vertex 3.299000e+001 1.816100e+001 0.000000e+000
         vertex 8.849001e+000 1.832200e+001 0.000000e+000
      endloop
   endfacet
   facet normal 0.000000e+000 0.000000e+000 -1.000000e+000
      outer loop
         vertex 8.849001e+000 1.832200e+001 0.000000e+000
         vertex 3.299000e+001 1.816100e+001 0.000000e+000
         vertex 8.849001e+000 1.816100e+001 0.000000e+000
      endloop
   endfacet
endsolid